<svg width="314" height="187" viewBox="0 0 314 187" fill="none" xmlns="http://www.w3.org/2000/svg">
<g filter="url(#filter0_b_116_40)">
<g filter="url(#filter1_i_116_40)">
<path d="M277.747 95.0085C278.549 90.4547 278.967 85.7702 278.967 80.9889C278.967 36.26 242.369 6.10352e-05 197.223 6.10352e-05C163.661 6.10352e-05 134.823 20.0397 122.234 48.7008C112.035 39.9768 98.801 34.7096 84.3389 34.7096C52.0918 34.7096 25.9504 60.8973 25.9504 93.2015C25.9504 95.0003 26.0315 96.7802 26.1902 98.5377C10.6799 106.065 1.5378e-05 121.858 1.5378e-05 140.124C1.5378e-05 165.683 20.9131 186.403 46.7108 186.403H267.289C293.087 186.403 314 165.683 314 140.124C314 118.126 298.51 99.7132 277.747 95.0085Z" fill="url(#paint0_linear_116_40)"/>
</g>
</g>
<defs>
<filter id="filter0_b_116_40" x="-27" y="-26.9999" width="368" height="240.403" filterUnits="userSpaceOnUse" color-interpolation-filters="sRGB">
<feFlood flood-opacity="0" result="BackgroundImageFix"/>
<feGaussianBlur in="BackgroundImage" stdDeviation="13.5"/>
<feComposite in2="SourceAlpha" operator="in" result="effect1_backgroundBlur_116_40"/>
<feBlend mode="normal" in="SourceGraphic" in2="effect1_backgroundBlur_116_40" result="shape"/>
</filter>
<filter id="filter1_i_116_40" x="0" y="6.10352e-05" width="314" height="196.403" filterUnits="userSpaceOnUse" color-interpolation-filters="sRGB">
<feFlood flood-opacity="0" result="BackgroundImageFix"/>
<feBlend mode="normal" in="SourceGraphic" in2="BackgroundImageFix" result="shape"/>
<feColorMatrix in="SourceAlpha" type="matrix" values="0 0 0 0 0 0 0 0 0 0 0 0 0 0 0 0 0 0 127 0" result="hardAlpha"/>
<feOffset dy="11"/>
<feGaussianBlur stdDeviation="5"/>
<feComposite in2="hardAlpha" operator="arithmetic" k2="-1" k3="1"/>
<feColorMatrix type="matrix" values="0 0 0 0 1 0 0 0 0 1 0 0 0 0 1 0 0 0 1 0"/>
<feBlend mode="normal" in2="shape" result="effect1_innerShadow_116_40"/>
</filter>
<linearGradient id="paint0_linear_116_40" x1="19.9717" y1="169.76" x2="336.746" y2="-67.1272" gradientUnits="userSpaceOnUse">
<stop stop-color="white"/>
<stop offset="1" stop-color="white" stop-opacity="0.58"/>
</linearGradient>
</defs>
</svg>
